
<svg xmlns="http://www.w3.org/2000/svg" xml:space="preserve" width="118.55mm" height="448.063" viewBox="0 0 118.55 118.55"><path d="M25.08 118.405c-.078-.079-5.6-1.736-12.27-3.684-8.262-2.413-12.236-3.69-12.469-4.01-.188-.256-.342-.744-.342-1.082s2.259-5.125 5.019-10.636c8.472-16.918 8.878-18.702 9.262-31.906.297-10.237.787-12.947 3.298-18.256 1.822-3.852 4.457-6.929 7.689-8.976 2.113-1.338 5.281-2.58 7.474-2.93l1.125-.179-.001-2.424c0-1.333.038-4.389.086-6.79.102-5.022.404-6.071 2.22-7.707 1.28-1.153 2.312-1.534 4.879-1.8.095-.01.217-1.06.271-2.333.11-2.558.57-3.818 1.875-5.122 1.686-1.686 3.983-2.279 6.727-1.737 1.062.21 1.124.185 1.536-.611.688-1.332 2.298-2.959 3.442-3.48.66-.3 1.688-.484 2.733-.487 1.498-.005 1.793-.1 2.778-.888 2.474-1.978 5.423-2.61 7.95-1.705.971.349 1.109.327 2.645-.42C71.9.81 72.835.355 73.087.235c.865-.413 3.99-.24 5.473.302 3.863 1.412 6.286 4.303 6.974 8.322.316 1.842.287 2.05-1.437 10.603-.432 2.143-.533 3.668-.529 8.022l.005 5.375 1.018 1.107c3.675 3.998 6.878 10.462 8.809 17.776 1.419 5.377 1.884 8.98 2.118 16.404.235 7.46.415 9.195 1.324 12.7.95 3.67 1.777 5.529 7.839 17.626 3.253 6.493 5.915 12.054 5.915 12.359 0 .652-.86 1.528-1.675 1.704-7.893 1.91-15.858 3.527-23.725 5.545-.51.145-1.437.322-2.062.394-.945.109-1.223.03-1.654-.467-.285-.328-.518-.654-.518-.723 0-.07-.423-1.738-.941-3.707-.518-1.97-1.284-4.9-1.702-6.514-2.036-7.867-2.486-9.481-3.346-12.024-1.072-3.171-2.821-6.86-4.816-10.158-1.287-2.127-2.12-2.984-1.8-1.852.073.255.207 1.237.298 2.183.24 2.478 1.128 8.59 1.622 11.159.518 2.692.583 7.77.125 9.744-.186.8-.858 2.541-1.494 3.87-1.452 3.035-3.635 5.172-6.86 6.715-5.928 2.834-11.499 2.431-16.672-1.206-5.276-3.71-8.61-11.611-9.293-22.022-.098-1.497-.262-2.773-.364-2.836-.102-.063-.336.387-.52 1.001s-.432 1.414-.55 1.777c-.118.364-1.246 4.353-2.507 8.864-4.195 15.016-4.278 15.28-4.94 15.789-.581.447-1.815.645-2.12.34zm32.863-3.938c4.322-1.344 7.058-3.792 8.514-7.619.959-2.522.944-6.135-.05-11.848-.14-.8-.32-1.931-.402-2.513-.081-.583-.26-1.714-.396-2.514-.514-3.008-1.081-11.109-1.018-14.552.045-2.487-.071-4.285-.381-5.922-.246-1.292-.446-3.333-.446-4.536 0-7.891-2.521-18.632-6.317-26.91-1.656-3.612-1.66-5.378-.02-7.762.916-1.332 3.1-2.495 4.686-2.495 1.597 0 3.434.751 4.441 1.816.932.984 1.215 1.432 6.936 10.987 3.632 6.064 3.394 5.897 4.314 3.019 1.402-4.39 2.1-8.497 2.1-12.366v-2.544l-1.654-1.603C74.016 23 69.743 21.058 64.955 21.06c-2.903.002-4.612.346-7.382 1.488-5.827 2.403-12.626 8.634-18.298 16.77l-1.704 2.444v5.982c0 3.29.099 5.981.22 5.981s2.516-2.496 5.322-5.547c5.593-6.083 6.673-6.907 8.996-6.868 1.674.028 2.72.464 4.227 1.763 1.577 1.358 2.287 3.128 2.052 5.115-.61 5.154-4.609 11.507-5.919 13.475-2.015 3.027-3.573 6.098-5.233 10.319-2.248 5.713-4.04 9.01-6.806 12.525l-1.007 1.28v2.877c0 3.572.396 7.512 1.102 10.967 1.634 7.998 5.104 12.915 10.388 14.718 1.667.569 5.382.632 7.03.119zm47.915-5.099c.126-.126-2.11-4.879-5.02-10.671-7.928-15.787-8.378-17.289-8.764-29.23-.273-8.435-.725-11.569-2.754-19.059-.377-1.392-1.92-5.253-2.842-7.11-1.017-2.05-3.002-5.184-3.283-5.184-.155 0-.644 1.459-1.086 3.242-.86 3.463-2.764 8.56-3.592 9.612-.355.451-.767.64-1.397.64-1.155 0-1.03.177-7.28-10.296-2.814-4.717-5.382-8.884-5.706-9.26-.488-.568-.803-.68-1.848-.658-1.022.021-1.375.16-1.875.742-.898 1.045-.777 1.99.7 5.43 2.601 6.063 4.3 11.801 5.25 17.746.29 1.82.537 3.486.546 3.705.207 4.643.875 11.097 1.317 12.718 1.071 3.939 3.373 9.296 4.652 10.83.305.365.857 1.325 2.586 4.497.75 1.378 2.76 6.196 3.311 7.938.539 1.704 1.882 6.778 4.063 15.346 1.079 4.24 1.082 4.247 2.148 3.978 15.544-3.922 15.873-2.795 20.875-4.956zm-80.22 3.16c.289-.982 1.676-5.893 3.083-10.914l3.013-10.748c.563-2 1.456-3.502 3.207-5.391 4.396-4.742 6.627-8.394 8.978-14.696 1.751-5.092 4.84-9.373 7.494-13.923 2.27-3.856 3.846-8.588 3.32-9.97-.4-1.053-1-1.6-1.953-1.778-1.085-.204-2.15.33-3.305 1.658-.482.554-2.128 2.352-3.659 3.997a297.962 297.962 0 0 0-3.258 3.537c-2.174 2.507-5.76 6.141-6.244 6.327-.934.36-1.863-.137-2.127-1.137-.127-.478-.25-4.966-.272-9.973-.023-5.006-.086-9.147-.14-9.2-.235-.236-3.384.784-5.2 1.683-2.302 1.14-5.757 4.39-6.978 6.566-1.728 3.077-3.092 7.522-3.45 11.245-.091.946-.227 4.518-.301 7.937-.271 12.45-1.426 16.584-8.637 30.92-2.591 5.15-4.711 9.5-4.711 9.665 0 .473 19.712 5.935 20.03 5.952.5.026.66-.227 1.11-1.756zm13.256-78.842c.51-.68 1.681-2.102 2.605-3.16l1.678-1.925-.09-2.674c-.09-2.638-.103-2.684-.956-3.445-1.828-1.633-4.394-.554-4.599 1.933-.155 1.885.05 10.525.25 10.516.102-.005.603-.564 1.112-1.244zm10.197-10.323 1.97-1.521.002-3.519c.002-3.922-.247-4.785-1.578-5.472-.975-.505-1.94-.51-2.893-.018-1.362.704-1.613 1.423-1.613 4.618 0 1.678.113 2.974.268 3.07.455.282 1.246 2.057 1.443 3.24.103.618.242 1.124.309 1.124.066 0 1.008-.685 2.091-1.522zm30.934-.926c.08-.473.27-1.693.422-2.712.153-1.018.511-2.804.796-3.968 1.357-5.539 1.082-8.02-1.118-10.092-1.38-1.3-2.904-1.947-4.585-1.947-1.437 0-3.309.553-3.309.978 0 .117.238.839.53 1.604.87 2.29.569 5.993-.803 9.87-.286.81-.516 1.644-.51 1.853.006.211 1.031.868 2.315 1.482 1.267.606 3.078 1.7 4.024 2.432.946.73 1.804 1.336 1.907 1.344.102.01.251-.371.33-.844zm-23.724-3.34c.54-.274 1.36-.58 1.823-.68 1.098-.236 1.26-.478 1.688-2.528.471-2.26.478-5.459.013-6.561-.808-1.915-3.093-2.104-4.523-.374-1.127 1.362-1.494 2.688-1.104 3.989.169.563.307 2.21.307 3.66 0 3.296.056 3.374 1.796 2.493zm11.537-2.216c.644-1.005 1.496-3.924 1.805-6.185.28-2.048.264-2.211-.345-3.44-.754-1.521-2.057-2.48-3.372-2.48-1.083 0-3.191.941-3.415 1.524-.084.219.13.916.476 1.548.566 1.038.629 1.481.637 4.53.005 1.858-.082 3.7-.192 4.094l-.2.716 1.787.092c.984.051 1.934.116 2.113.145s.496-.217.706-.544z"/></svg>