<svg xmlns="http://www.w3.org/2000/svg" xml:space="preserve" width="491.146" height="511.976" viewBox="0 0 129.949 135.46"><path d="M796.44 176.59c-.677-.826-.716-1.099-.295-2.024.319-.7 1.124-1.048 3.136-1.357 2.574-.395 5.318-2.578 6.558-5.216.845-1.797 1.645-4.43 1.645-5.412 0-.818-.112-.946-1.257-1.444-.691-.3-1.886-.83-2.654-1.176s-1.45-.63-1.513-.63c-.065 0-.746-.283-1.514-.63a249.457 249.457 0 0 0-4.704-2.01c-8.776-3.662-11.178-5.405-14.407-10.453-1.507-2.357-6.77-11.033-7.253-11.96-.262-.502-.824-2.965-1.649-7.225-.127-.655-.458-2.262-.737-3.572-.28-1.31-.756-3.572-1.06-5.027-.303-1.455-.914-4.372-1.357-6.482-.443-2.11-1.039-4.968-1.323-6.35a508.384 508.384 0 0 0-.894-4.252c-.207-.955-.51-3.158-.673-4.894-.384-4.092-.938-7.402-2.1-12.55-.573-2.542-1.431-6.035-1.917-7.806-.28-1.018-.62-2.268-.757-2.778-.42-1.56-1.37-4.857-1.6-5.556-.12-.364-.712-2.269-1.317-4.233a278.262 278.262 0 0 0-1.872-5.852c-.93-2.749-.937-2.897-.16-3.627.68-.638 2.06-.753 3.968-.329.61.136 1.883.38 2.829.541 1.797.308 3.458.611 5.688 1.037.728.139 2.067.38 2.977.537 9.138 1.573 9.293 1.615 9.873 2.698.139.26.37 5.131.512 10.825.142 5.693.328 10.463.413 10.6.085.138.89-.385 1.789-1.161 3.017-2.605 6.865-5.143 11.82-7.795.946-.507 1.826-1.018 1.955-1.138.135-.125.094-.756-.095-1.49-1.757-6.798-1.396-11.476 1.25-16.223 1.048-1.88 4.008-5.032 5.886-6.267 2.183-1.434 5.274-2.751 7.673-3.269.8-.172 1.729-.42 2.063-.548.802-.31 6.538-.303 7.576.01.447.134 1.467.38 2.268.549 7.155 1.5 13.615 6.955 15.942 13.463 1.488 4.165 2.176 9.797 1.534 12.564-.13.563-.181 1.159-.113 1.323.068.164 1.043.852 2.166 1.528 5.19 3.126 10.242 7.922 13.415 12.737.555.842 1.106 1.434 1.225 1.315.118-.118.329-6.129.468-13.357.151-7.809.363-13.344.521-13.64.491-.918 1.026-1.14 4.043-1.674 1.65-.292 3.595-.639 4.323-.77.727-.13 2.692-.474 4.365-.763 1.674-.29 4.412-.771 6.086-1.07 4.806-.862 4.965-.881 5.67-.704.37.092.852.52 1.077.954.388.75.35.951-.819 4.428-1.15 3.417-1.976 6.032-2.489 7.875a302.87 302.87 0 0 1-1.056 3.572 188.333 188.333 0 0 0-1.345 4.696c-1.132 4.265-1.594 6.082-1.865 7.342-.157.728-.392 1.8-.524 2.382-.242 1.074-.542 2.61-1.045 5.358-.153.836-.503 3.485-.778 5.887-.275 2.4-.868 6.092-1.318 8.202-.45 2.11-1.063 5.027-1.364 6.482-.539 2.604-1.144 5.49-2.081 9.922-.44 2.08-1.889 9.053-2.391 11.51-.35 1.71-.626 2.264-3.584 7.202-3.547 5.92-4.377 7.05-7.356 10.014-3.596 3.578-6.305 5.259-12.996 8.065a224.22 224.22 0 0 0-4.043 1.738c-.768.346-1.452.63-1.52.63-.487 0-4.094 1.9-4.094 2.156 0 .178.193 1.104.428 2.06 1.235 5.001 4.349 8.476 8.17 9.117 2.327.39 2.527.475 2.914 1.223.434.84.311 1.425-.485 2.31l-.536.596-24.362-.005-24.362-.005zm39.315-3.373c.062-.062-.203-.526-.588-1.031-1.085-1.423-2.732-4.865-3.239-6.769-.251-.946-.545-1.822-.653-1.948-.109-.125-1.13-.029-2.27.214-4.06.865-11.824.828-16.161-.076-1.226-.256-1.481-.106-1.735 1.017-.608 2.694-1.61 5.021-2.989 6.946-.496.691-.901 1.374-.901 1.517 0 .391 28.146.52 28.536.13zm-8.104-13.188c.833-.172 1.617-.43 1.743-.571.126-.142.502-1.032.835-1.978 1.289-3.655 2.465-4.75 8.063-7.509 2.482-1.223 4.692-2.297 4.91-2.385.219-.09 1.092-.548 1.941-1.02 1.199-.668 1.708-1.156 2.277-2.183.403-.728.994-1.783 1.313-2.346.32-.563.522-1.082.451-1.153-.155-.155-.861.562-2.807 2.847-2.436 2.862-2.95 3.291-4.317 3.603-3.014.688-5.737-1.32-5.737-4.23 0-1.369.335-2.084 2.618-5.6 6.987-10.759 6.643-10.168 6.643-11.404 0-.64-.09-1.162-.199-1.16-.11.002-.729.188-1.377.414-3.471 1.209-9.13 1.462-12.432.557-2.173-.595-2.744-1.821-1.516-3.25l.616-.715 2.588.342c3.029.4 7.048.209 9.012-.431.728-.237 1.859-.504 2.514-.594l1.19-.163.18-1.809c.097-.994.245-1.983.327-2.197.102-.266-.165-.525-.84-.816-.767-.33-1.941-.43-5.223-.442-4.465-.016-5.75.177-8.996 1.351-2.787 1.01-3.168 1.033-3.953.248-1.115-1.115-.805-2.494.716-3.186 2.214-1.008 4.539-1.642 7.868-2.145 2.965-.449 5.105-.49 7.247-.139.858.14 1.668.189 1.8.107.288-.178-1.87-2.544-3.359-3.682a41.193 41.193 0 0 0-15.61-7.385c-2.997-.707-3.06-.719-5.821-1.064-3.012-.376-3.023-.373-6.576 1.903-3.045 1.95-13.4 9.78-13.4 10.132 0 .099 1.37.193 3.043.21 4.187.041 10.266 1.269 11.752 2.373.98.729 1.048 1.967.154 2.86-.775.775-.874.772-4.101-.148-4.616-1.315-8.823-1.638-12.171-.934-2.81.591-2.846.623-2.702 2.434.147 1.849.429 2.46 1.134 2.46.292 0 1.33.26 2.306.575 1.975.64 6.5.815 10.005.388 1.78-.217 1.91-.196 2.46.393.766.823.649 1.997-.267 2.677-.869.646-4.032 1.26-6.454 1.254-2.043-.005-5.53-.554-7.224-1.137-.6-.207-1.155-.312-1.233-.234-.078.078-.142.537-.142 1.02 0 .962.35 1.576 5.041 8.823 1.649 2.547 3.272 5.157 3.608 5.8 1.925 3.68-1.045 7.473-5.125 6.545-1.384-.314-1.504-.413-4.053-3.34-2.07-2.374-2.84-3.184-3.028-3.184-.079 0 .435 1.1 1.14 2.446 1.197 2.281 1.387 2.503 2.842 3.306.858.474 1.738.933 1.956 1.02.219.087 2.462 1.183 4.986 2.437 5.441 2.701 6.4 3.565 7.7 6.935.445 1.152.808 2.205.808 2.34 0 .135.157.305.348.378.398.153 3.765.673 5.34.824 1.727.167 7.555-.13 9.188-.468zm-10.788-7.295c-3.816-1.882-6.815-6.34-5.212-7.75.67-.59 2.392-1.393 3.803-1.775 1.096-.297 3.052-.27 5.259.074.363.057.807-.012.986-.153.178-.142 1.31-.211 2.513-.156 1.704.08 2.56.27 3.858.864 2.683 1.227 3.012 2.177 1.547 4.468-1.116 1.745-2.986 3.4-4.904 4.342-1.232.605-1.895.743-3.868.803-2.186.066-2.513.007-3.982-.717zm6.023-3.462c1.867-.714 3.022-1.721 2.582-2.252-.43-.518-1.882-.49-3.442.064-1.205.427-1.35.426-2.762-.018-2.042-.644-3.93-.202-3 .701.643.624 1.929 1.433 2.729 1.717 1.225.434 2.364.372 3.893-.212zm-15.138 7.851c0-.86-1.507-1.828-7.88-5.063-5.966-3.028-6.847-3.556-7.295-4.37-1.333-2.425-1.86-3.369-2.287-4.1-.521-.892-1.188-2.105-3.034-5.523-1.214-2.249-1.261-2.415-1.121-3.96l.146-1.613-2.472-2.444c-1.36-1.344-2.548-2.683-2.64-2.975-.362-1.14 1.085-2.531 2.284-2.198.758.211 5.872 5.034 8.197 7.732 5.68 6.589 9.356 10.746 9.662 10.928.434.258.884.02.884-.466 0-.336-2.626-4.653-4.756-7.816-.538-.8-1.772-2.724-2.741-4.274l-1.762-2.82-.12-3.663c-.105-3.203-.637-7.86-1.128-9.88-.088-.364-2.863-4.712-6.165-9.662l-6.005-9-.299-9.256c-.165-5.091-.364-12.412-.443-16.268-.17-8.292-.276-9.455-.88-9.637-.242-.073-1.214-.262-2.16-.42-.945-.158-2.434-.41-3.307-.562l-2.778-.48c-6.01-1.037-8.256-1.371-8.381-1.245-.122.122 1.136 4.478 2.038 7.052.245.701.94 2.998 1.34 4.432.133.473.351 1.247.487 1.72.814 2.84 2.473 9.351 2.917 11.443.185.873.434 1.945.553 2.381.311 1.141 1.242 6.998 1.557 9.79.45 4.005.513 4.415 1.069 7.011l.821 3.837c.155.727.386 1.918.513 2.646.127.727.344 1.799.482 2.38.138.583.5 2.25.805 3.705l1.36 6.482c.874 4.158 1.764 8.444 2.14 10.292.25 1.236.643 1.999 2.875 5.583.77 1.237 2.146 3.5 3.056 5.029 2.83 4.75 3.974 6.04 7.138 8.056.727.463 1.74 1.004 2.249 1.201.51.198 1.673.696 2.586 1.107.913.41 1.714.747 1.78.747.065 0 .898.357 1.852.794.953.436 1.79.793 1.861.793.07 0 .633.237 1.25.526.954.446 5.488 2.339 5.686 2.373.036.006.066-.149.066-.345zm28.732-.305c.796-.363 1.499-.661 1.563-.661.064 0 .745-.283 1.513-.629.769-.346 2.588-1.13 4.043-1.74 4.992-2.1 6.307-2.812 9.26-5.02 3.523-2.632 6.113-6.095 11.406-15.247.341-.59.873-2.316 1.182-3.837.31-1.52.777-3.776 1.039-5.013 1.27-5.997 1.665-7.889 1.853-8.863.397-2.05.806-3.985 1.175-5.556.205-.873.572-2.6.817-3.837.244-1.237.673-3.32.953-4.63.547-2.555.59-2.846 1.028-6.88.636-5.868 2.256-13.699 4.488-21.695.122-.437.473-1.72.78-2.85.307-1.132.722-2.56.922-3.176 1.67-5.129 2.829-8.983 2.731-9.08-.137-.138-3.84.405-8.133 1.191-.8.147-2.943.515-4.762.818-4.288.716-4.191.679-4.356 1.669-.078.464-.264 5.964-.413 12.222-.15 6.257-.347 13.758-.438 16.669l-.166 5.291-1.613 2.352a220.615 220.615 0 0 0-1.878 2.766c-.145.228-2.12 3.218-4.388 6.644-2.269 3.427-4.21 6.528-4.314 6.891-.396 1.386-.732 4.271-1.049 8.997l-.327 4.896-1.073 1.586c-.59.873-1.55 2.36-2.13 3.307-.582.946-2.147 3.416-3.48 5.489-1.331 2.073-2.421 4.007-2.421 4.3 0 1.056.991.544 2.684-1.389.925-1.055 1.745-1.977 1.823-2.05.281-.261 6.52-7.555 7.015-8.202.639-.834 5.889-5.988 6.612-6.492.827-.575 2.352-.069 2.76.915.426 1.03.239 1.327-2.628 4.158l-2.395 2.366.169 1.61c.19 1.819.405 1.338-4.72 10.54-.65 1.164-1.412 2.533-1.695 3.042-.452.811-1.355 1.353-7.278 4.366-6.818 3.468-7.297 3.762-7.87 4.834-.416.775-.112.762 1.711-.072zm-40.035-46.916c.905-.701 2.658-2.04 3.895-2.975 1.237-.934 2.308-1.76 2.381-1.835.353-.363 6.676-5.06 8.07-5.996.873-.585 2.948-1.814 4.612-2.73 1.664-.917 3.704-2.105 4.535-2.642 5.77-3.73 11.039-9.385 15.222-16.34 4.25-7.067 4.916-11.753 2.693-18.942-1.855-5.998-5.79-9.752-12.3-11.732-2.057-.626-2.787-.71-6.296-.73-4.182-.023-5.645.264-8.853 1.74-6.393 2.94-9.856 8.875-9.003 15.43.362 2.782.834 4.67 1.204 4.811.416.16 4.17-1.123 6.07-2.075 1.972-.988 4.146-2.639 5.128-3.893.897-1.145 2.147-3.36 2.149-3.807 0-.177.125-.768.277-1.314.504-1.815 2.472-2.197 3.53-.685.566.807.53 1.344-.23 3.501-1.055 2.988-2.98 5.545-5.85 7.766-1.232.953-4.752 2.763-6.328 3.253-6.136 1.908-13.821 6.084-19.181 10.423-1.091.883-2.669 2.271-3.506 3.086l-1.522 1.481v8.773l1.109 1.607c.61.884 1.202 1.607 1.317 1.607.115 0 .463-.506.775-1.124 1.12-2.229 2.73-4.343 5.1-6.7 3.968-3.946 7.266-6.058 12.994-8.32 3.852-1.52 5.7-2.654 7.973-4.89 1.514-1.49 2.357-2.57 2.846-3.646.382-.841.695-1.675.696-1.852.004-.928.63-2.363 1.191-2.73.939-.616 2.205-.267 2.62.722.26.618.259 1.11-.01 2.408-.543 2.639-1.99 5.232-4.147 7.433-2.783 2.841-5.15 4.312-10.057 6.249-4.471 1.765-8.041 4.025-11.219 7.102-3.222 3.12-5.156 6.272-5.517 8.992-.166 1.255-.154 1.28 2.671 5.555 1.562 2.362 2.946 4.295 3.077 4.295.13 0 .978-.574 1.884-1.276zm54.232-2.325c.691-1.088 1.257-2.09 1.257-2.228 0-.519-2.303-4.064-3.997-6.154-3.052-3.765-8.233-8.494-12.327-11.254-1.878-1.266-2.272-1.336-2.844-.51-.696 1.004-5.131 5.379-6.685 6.593-.807.63-1.778 1.402-2.157 1.715l-.689.568 1.054.254c.58.14 1.709.404 2.51.586 7.8 1.775 15.142 5.762 20.296 11.02.934.953 1.792 1.616 1.985 1.533.187-.08.906-1.035 1.597-2.123zm6.11-9.23c1.114-1.672 2.026-3.274 2.026-3.56 0-.493-.098-.782-.99-2.924-1.96-4.713-5.988-10.017-10.212-13.45-2.718-2.21-6.013-4.367-6.268-4.105-.12.124-.768 1.28-1.441 2.57-.673 1.291-1.813 3.22-2.533 4.288s-1.31 2.045-1.31 2.17.922.867 2.05 1.649c3.113 2.157 5.755 4.363 8.553 7.14 3.095 3.074 4.358 4.555 6.144 7.204.757 1.123 1.507 2.045 1.666 2.05.16.005 1.202-1.36 2.315-3.032z" style="fill:#000" transform="translate(-756.205 -41.863)"/></svg>