<svg xmlns="http://www.w3.org/2000/svg" xml:space="preserve" width="511.971" height="448.069" viewBox="0 0 135.459 118.552"><path d="M1120.973 162.842c-1.38-.291-3.24-1.768-3.931-3.12-.78-1.524-.844-2.184-.846-8.655 0-5.461-.035-6.167-.285-6.263-.155-.06-.35-.068-.431-.017-.082.05-.974.216-1.983.367l-3.433.516c-.88.132-2.508.367-3.618.523-1.11.156-2.07.316-2.135.356-.064.04-.922.166-1.905.28-2.101.244-2.853.045-3.434-.91-.333-.547-.35-.943-.361-8.56-.012-4.391-.056-8.055-.108-8.142-.054-.086-2.003-.157-4.332-.157-3.698 0-4.249.036-4.343.281-.06.155-.107 6.835-.107 14.846 0 16.075.057 15.258-1.12 15.975-.519.316-.914.347-4.529.347-3.556 0-4.028-.034-4.62-.34-1.269-.655-1.182.432-1.28-16.095l-.09-14.925-.445-.043c-3.837-.375-5.65-1.438-6.939-4.07-.477-.973-.535-1.27-.54-2.753 0-2.025.455-3.24 1.747-4.621 1.493-1.596 2.845-2.099 5.652-2.103 2.286-.003 2.5-.108 2.112-1.034-.143-.343-.267-1.115-.276-1.715-.035-2.332 1.15-4.328 3.179-5.356l1.018-.515 7.417-.05 7.417-.05.4-.545c.769-1.043 2.027-1.36 3.132-.789.546.282.565.28.706-.115.182-.51.463-1.879.83-4.048.156-.929.395-2.288.53-3.02.327-1.77.727-3.993 1.072-5.953.155-.88.392-2.159.528-2.843.135-.684.296-1.604.357-2.043.062-.44.225-1.208.364-1.708.262-.943.429-1.118 8.074-8.422l2.488-2.377c3.938-3.765 4.437-4.186 5.59-4.725 1.634-.764 2.59-.907 6.048-.903l3.02.004-.888-.435c-.488-.24-1.067-.438-1.284-.44-1.248-.018-3.715-1.504-5.507-3.317-2.37-2.398-3.524-5.254-3.506-8.683.012-1.433.379-3.5.78-4.335l.474-.995c1.111-2.344 3.437-4.645 5.756-5.696 2.038-.923 2.684-1.053 5.242-1.054 1.985 0 2.702.07 3.553.346 4.842 1.575 7.93 5.153 8.742 10.126.587 3.599-.54 7.204-3.14 10.047-1.13 1.234-2.707 2.473-3.248 2.553-.151.022-.383.121-.515.22-.392.296-1.613.75-2.327.867-.367.06-.667.181-.667.27 0 .09-.3.225-.666.303-.45.095.547.175 3.065.243 5.332.146 5.451.204 10.69 5.24 1.939 1.864 4.321 4.143 5.295 5.065 4.677 4.428 5.567 5.387 5.69 6.125.064.387.223 1.263.353 1.947.13.684.368 2.004.53 2.932a384.09 384.09 0 0 0 1.08 5.952c.132.684.286 1.536.343 1.893.058.357.229.697.38.755.153.059 1.45.107 2.883.109 4.648.003 7.514 1.092 10.348 3.93.778.778 1.493 1.367 1.59 1.307.095-.06.174-.477.174-.929 0-1.523 1.088-4.143 2.504-6.033 1.635-2.182 4.648-4.134 7.358-4.765 1.49-.347 4.122-.393 5.441-.094 3.99.902 6.7 2.8 8.73 6.114 2.906 4.741 2.366 11.296-1.254 15.234-.882.96-.92 1.037-.589 1.214.194.103.538.19.764.19 1.964.01 4.432 1.856 5.398 4.038.64 1.447.644 3.795.012 5.209-.729 1.623-1.725 2.668-3.398 3.563-.458.246-2.13.584-3.642.736l-.444.045-.09 14.925c-.082 14.022-.108 14.954-.41 15.399-.64.943-1.138 1.037-5.498 1.037-3.858 0-4.009-.014-4.59-.405-.33-.223-.701-.603-.823-.844-.173-.34-.224-3.733-.228-15.098 0-8.062-.07-14.76-.149-14.885-.115-.181-3.328-.226-15.936-.222-8.685.002-15.85.065-15.922.138-.072.073-.156 2.012-.186 4.308-.072 5.415-.129 5.53-2.892 5.883-.68.087-1.349.27-1.485.406-.205.205-.246 1.636-.236 8.281.012 4.419-.058 8.565-.142 9.214-.143 1.096-.353 1.702-.998 2.892-.368.676-1.52 1.666-2.603 2.233-.856.45-1.104.492-2.805.487-1.68-.006-1.96-.055-2.804-.493-1.435-.743-2.705-2.141-3.29-3.623-.26-.66-.297-1.724-.306-8.848-.012-6.89-.048-8.112-.267-8.196-.141-.054-1.037.042-1.992.213-.954.172-2.358.4-3.12.507-.862.121-1.446.295-1.551.461-.098.156-.17 3.249-.17 7.465 0 6.715-.027 7.263-.354 8.156-.648 1.773-1.946 3.218-3.559 3.958-.872.4-3.146.583-4.282.343zm2.757-4.123c.344-.203.79-.634.989-.957.352-.57.362-.806.317-7.404l-.046-6.817-.889.04c-1.102.05-3.092.397-3.509.612-.287.148-.31.644-.31 6.54 0 6.231.011 6.396.385 7.035.376.637 1.464 1.308 2.136 1.317.165.002.582-.163.927-.366zm20.171-.132c.238-.176.598-.54.8-.81.353-.474.37-.762.455-8.34.048-4.318.046-8.09-.012-8.383-.125-.698-.477-.74-2.798-.343-1.445.248-1.875.39-2.023.664-.107.202-.173 1.3-.156 2.59.017 1.233.046 4.726.064 7.763l.034 5.521.444.651c.776 1.136 2.172 1.437 3.188.687zm-58.308-15.49c.027-7.28.012-13.417-.047-13.637-.091-.372-.193-.4-1.48-.4-.838 0-1.466.084-1.595.214-.162.162-.214 3.416-.214 13.563 0 7.342.056 13.406.126 13.474.069.069.808.102 1.643.074l1.519-.05zm107.624 13.151c.143-.23.145-26.778 0-27.01-.06-.097-.737-.178-1.502-.178-1.105 0-1.414.058-1.5.281-.148.386-.137 26.816.012 26.964.188.188 2.87.137 2.99-.057zm-87.684-14.029c2.226-.306 3.654-.533 5.19-.824a68.273 68.273 0 0 1 2.577-.432c2.155-.306 4.533-.664 6.98-1.053 1.32-.21 2.919-.455 3.554-.546 1.43-.204 4.122-.612 5.775-.874l2.843-.448c.88-.138 2.151-.341 2.827-.45.675-.11 1.42-.35 1.653-.535.362-.284.711-.33 2.326-.31 1.1.013 2.649-.106 3.677-.282 1.637-.28 4.53-.741 5.902-.94.314-.045.61-.145.657-.222.047-.077.095-1.693.105-3.591.015-2.624-.044-3.622-.241-4.162-.226-.617-.227-.79-.012-1.315.38-.911.374-7.196-.012-7.929-.344-.659-.346-.928-.012-1.57.326-.627.371-4.025.06-4.606-.253-.472-.23-1.505.04-1.831.212-.254.278-6.676.074-7.007-.171-.277-18.243-.23-18.868.049-.515.23-.665.339-1.911 1.377-3.448 2.875-4.574 3.722-5.591 4.211-1.095.527-1.474.558-7.669.634l-3.302.041-.677.595c-1.89 1.661-4.606 1.819-6.489.377-1.046-.801-1.414-.943-1.888-.727-.415.189-.421.23-.421 2.75 0 2.058.053 2.602.266 2.78.368.305.363 2.789-.012 3.276-.38.504-.38 6.625 0 7.129.34.448.346 1.867.012 2.31-.219.289-.262 1.464-.266 7.289 0 3.82.055 7.004.126 7.077.073.073.373.095.666.05a181.75 181.75 0 0 1 2.044-.29zm-7.12-17.496c.133-.161.184-1.038.151-2.617l-.05-2.374-11.348-.046c-11.272-.045-11.353-.043-11.955.33-.682.421-1.307 1.496-1.303 2.241 0 .803.718 1.877 1.508 2.273.685.342 1.108.357 11.753.396 9.158.033 11.076-.001 11.243-.203zm101.906-.187c.779-.394 1.512-1.475 1.51-2.228 0-.766-.626-1.877-1.283-2.283l-.621-.384h-22.868c-12.578 0-22.942.045-23.032.1-.192.12-.223 4.936-.032 5.126.072.072 10.364.109 22.87.082 22.484-.05 22.748-.054 23.456-.413zm-25.771-9.087c.233-.09.28-.442.273-2.088-.012-2.783-.276-3.855-1.375-5.567-1.455-2.265-3.733-3.799-6.449-4.34-.447-.09-3.565-.141-6.929-.115l-6.117.046v5.686l7.285.096c4.613.06 7.488.168 7.84.292 2.092.74 3.38 2.43 3.568 4.685.077.911.175 1.238.389 1.295.456.122 1.21.127 1.515.01zm5.9-.155c.114-.296-1.125-1.567-1.377-1.412-.086.053-.156.374-.156.714 0 .473.093.654.4.777.603.243 1.021.214 1.133-.078zm-12.407-.128c.118-.118.213-.476.213-.796 0-1.128-.034-1.133-7.568-1.081l-6.735.047-.054 1.021-.054 1.022h6.992c5.201 0 7.046-.055 7.205-.213zm23.525-.698c1.601-.34 3.148-1.206 4.407-2.468 1.83-1.834 2.659-3.8 2.663-6.317.014-4.996-3.96-8.966-8.954-8.958-4.483.008-7.996 2.915-8.92 7.38-.596 2.882.497 6.047 2.815 8.156 2.28 2.072 5.036 2.834 7.99 2.207zm-93.155-.227c.131-.158.188-.792.155-1.732l-.05-1.483h-14.294l-.405.404c-.83.832-.403 2.653.69 2.935.18.046 3.335.094 7.013.105 5.539.017 6.72-.022 6.892-.229zm10.46-7.08c.1-.122.238-.622.305-1.11.069-.489.24-1.307.384-1.82.144-.511.22-.996.17-1.077-.049-.081.016-.702.145-1.38.13-.677.367-2.071.527-3.097.462-2.973 1.295-8.048 1.446-8.81.04-.202.255-.568.477-.812a628.623 628.623 0 0 1 4.226-4.585c.672-.686 1.333-1.074 1.832-1.074.57 0 1.625.612 1.84 1.066.07.147.154 4.861.188 10.477.046 7.76.112 10.243.276 10.346.332.209.833-.012 1.95-.858.563-.426 1.096-.775 1.184-.775.088 0 .308-.19.487-.421.179-.232.885-.85 1.57-1.373.684-.524 1.283-1.003 1.332-1.065.048-.062.369-.26.71-.441 1.634-.865 1.48-.85 9.151-.91 4.007-.03 7.385-.093 7.507-.139.173-.064.223-1.63.223-7.006 0-4.138.07-7.11.176-7.386.323-.85 1.032-1.337 1.937-1.333.509.003.958.12 1.189.31.203.17 1.452 1.514 2.773 2.988 2.59 2.888 2.638 2.976 2.987 5.551.225 1.659.694 4.517.94 5.733l.23 1.139h2.116l-.027-.953c-.015-.524-.158-1.643-.321-2.487-.4-2.08-.726-3.872-1.07-5.889-.158-.928-.362-1.972-.454-2.32-.176-.67-1.14-1.658-7.885-8.075-1.848-1.759-3.71-3.535-4.137-3.948-2.312-2.233-2.173-2.204-10.437-2.185-6.854.016-7.822.094-8.856.72-.62.375-.93.666-11.641 10.95l-2.007 1.927-.323 1.688c-.178.928-.461 2.487-.63 3.465a227.96 227.96 0 0 1-.543 3.02c-.13.684-.368 2.003-.53 2.932-.16.928-.4 2.247-.532 2.932-.132.684-.379 2.02-.549 2.971l-.308 1.728.427.804c.34.642.52.804.893.804.257 0 .55-.1.65-.222zm7.282-1.777c.25-.306.279-1.283.247-8.266l-.028-6.09-.445.291c-.339.223-.444.444-.443.937 0 .356-.123 1.366-.274 2.245-.747 4.367-1.366 8.193-1.607 9.926-.09.643-.057.903.125 1.019.378.24 2.219.193 2.426-.062zm34.486-6.435c.036-.193-.068-1.112-.23-2.044-.163-.93-.417-2.413-.565-3.292-.42-2.5-.415-2.479-.656-2.238-.222.221-.427 7.25-.227 7.771.072.187.317.247.856.207.586-.042.77-.133.822-.404zm-14.634-34.74c1.635-.782 2.273-1.282 3.168-2.477.934-1.248 1.279-1.954 1.622-3.326.357-1.423.346-2.213-.055-3.738-.863-3.287-3.194-5.476-6.616-6.211-1.33-.286-1.485-.285-2.872.009-1.92.408-3.398 1.24-4.642 2.615-2.294 2.535-2.808 6.018-1.348 9.142.627 1.34 2.281 3.128 3.382 3.653 2.097 1.001 2.315 1.052 4.252.99 1.686-.054 1.986-.118 3.11-.656z" style="fill:#000;stroke-width:.671551" transform="translate(-1070.159 -44.397)"/></svg>