<svg xmlns="http://www.w3.org/2000/svg" xml:space="preserve" width="357.549" height="447.94" viewBox="0 0 94.602 118.517"><path d="M68.437 386.303c-1.965-.103-6.025-.202-9.024-.219-6.429-.037-8.618-.22-8.816-.737-.078-.203.34-2.281.93-4.618.59-2.337 1.006-4.423.924-4.637-.106-.277-.473-.365-1.276-.307-1.1.08-1.13.108-1.26 1.14l-.132 1.058h-7.672v-17.462l3.307-.077c4.262-.098 4.444-.05 4.548 1.202l.082.991 1.712.08c3.098.146 2.918.41 2.918-4.3v-4.078l-1.903-1.34-1.903-1.342h-3.389c-3.086 0-3.388.043-3.388.476 0 .977-.518 1.112-4.258 1.112-3.06 0-3.648-.065-3.784-.419-.088-.23-.16-3.56-.16-7.399 0-6.63.025-6.994.512-7.254.281-.15 1.948-.274 3.704-.274 2.687 0 3.265.073 3.655.463.399.399.94.456 3.903.417 3.803-.051 3.752-.018 2.63-1.733-.526-.804-3.966-5.168-5.898-7.482-1.327-1.589-10.09-12.33-10.795-13.23-2.604-3.33-3.994-8.398-3.267-11.914.867-4.196 2.719-6.02 10.186-10.034.728-.39 2.335-1.307 3.572-2.037 1.237-.729 2.785-1.627 3.44-1.994.654-.368 1.964-1.119 2.91-1.668.946-.55 2.136-1.236 2.646-1.524 6.803-3.857 6.41-3.572 6.895-5.001.249-.73.535-1.972.638-2.76.567-4.356 2.764-7.362 6.848-9.372 5.072-2.495 11.56-2.183 17.307.834l1.659.87.987-.962c1.545-1.506 4.43-2.723 6.455-2.723 4.072 0 8.13 2.858 9.767 6.879.469 1.15.598 2.01.617 4.101.026 2.892-.328 4.208-1.76 6.543-.423.688-.698 1.365-.612 1.504.14.226 8.459 5.093 12.663 7.407 6.473 3.564 8.452 5.254 9.527 8.132 1.34 3.59.611 8.582-1.81 12.397-.462.728-2.54 3.407-4.617 5.953a23356.934 23356.934 0 0 0-8.523 10.452c-4.192 5.14-5.06 6.342-6.117 8.466-2.324 4.677-2.518 6.136-2.585 19.487-.04 8.12.032 11.281.281 12.263.303 1.195 1.718 6.403 3.218 11.844.939 3.405 2.48 3.113-16.153 3.06-8.672-.025-17.375-.13-19.34-.234zm33.86-1.771c-.008-.264-.353-1.613-1.03-4.035a467.84 467.84 0 0 1-1.611-6.047l-1.057-4.063v-10.703c0-12.8.203-14.633 2.132-19.267 1.094-2.629 2.643-4.923 6.343-9.397a984.4 984.4 0 0 0 5.416-6.615c1.354-1.673 3.436-4.233 4.626-5.688 3.261-3.987 3.714-4.626 4.504-6.35 2.031-4.434 1.723-8.982-.803-11.852-1.018-1.156-2.116-1.838-12.031-7.464-1.601-.909-4.81-2.739-7.131-4.067-2.322-1.328-4.324-2.414-4.45-2.414-.126 0-.168.208-.094.463.555 1.901.754 4.16.628 7.097l-.143 3.293 6.256 3.888c7.444 4.627 8.614 5.422 8.711 5.922.04.208-2.966 3.41-6.68 7.116-3.715 3.705-6.755 6.817-6.755 6.915 0 .098.804.594 1.786 1.103 1.404.727 1.804 1.066 1.868 1.59.148 1.215-.767 1.142-3.321-.262l-2.317-1.274-5.795-.09c-5.681-.087-5.815-.101-6.803-.756-1.765-1.168-2.087-2.25-2.087-7.025v-4.13l-.727.216c-.898.267-3.626 1.264-4.696 1.715-.88.371-3.467 1.345-4.129 1.555-.33.104-.455.631-.563 2.357-.14 2.24-.563 3.475-1.52 4.432-1.117 1.117-1.554 1.193-7.68 1.329l-5.952.132-2.059 1.449c-1.677 1.18-2.143 1.396-2.513 1.162-.852-.538-.509-1.232 1.198-2.423.91-.634 1.654-1.248 1.654-1.363 0-.116-2.985-3.144-6.634-6.729-4.476-4.398-6.605-6.667-6.545-6.977.053-.274 3.436-2.547 8.368-5.621 7.776-4.849 8.327-5.243 9.054-6.485.426-.728.777-1.475.78-1.66.002-.185-.553-1.296-1.235-2.469-1.21-2.083-1.232-2.16-.971-3.435.28-1.363.205-1.715-.28-1.33-.158.126-2.788 1.66-5.844 3.406a2274.659 2274.659 0 0 0-6.636 3.803c-.593.344-3.104 1.788-5.58 3.208-2.475 1.42-4.953 3.027-5.505 3.571-2.886 2.845-3.302 7.708-1.058 12.368.586 1.217 2.228 3.485 4.791 6.615l7.908 9.657c4.125 5.039 6.01 7.525 6.795 8.964.633 1.16 1.586 1.092 5.41-.385 4.553-1.758 4.64-1.81 5.59-3.4 1.585-2.65 2.793-3.948 4.445-4.776l1.567-.785 7.464-.09c7.108-.087 7.523-.065 8.716.463 2.924 1.293 4.63 3.5 5.332 6.894.518 2.507.232 5.097-1.01 9.132l-.786 2.554-.016 8.738-.016 8.739.693 1c2 2.887 1.771 6.404-.589 9.016-1.37 1.517-2.944 2.205-6.03 2.637-4.524.633-7.37.459-11.642-.713l-3.704-1.016-6.876-.004-6.876-.004-.33 1.323c-1.284 5.134-1.603 6.636-1.444 6.788.482.463 49.533 1.012 49.519.554zm-54.03-15.115c.05-4.838-.016-6.819-.24-7.088-.229-.276-.837-.354-2.32-.297l-2.009.076-.07 6.847c-.041 3.944.033 6.972.175 7.143.161.196.955.252 2.32.165l2.073-.132zm32.87 6.707c3.752-.25 4.93-.568 6.133-1.655.574-.52 1.236-1.31 1.47-1.758.557-1.064.56-3.734.006-4.782-.556-1.05-2.002-2.412-2.933-2.763-.418-.158-2.898-.294-5.633-.31-3.9-.024-4.964-.107-5.272-.415-.558-.558-.492-.769.535-1.703 1.106-1.006 1.99-2.733 1.99-3.888 0-1.548-1.542-2.37-2.99-1.595-.315.17-1.468 1.226-2.562 2.349-2.316 2.377-3.68 3.29-6.182 4.139-1.71.58-2.19.614-8.66.614H50.19l-.147.595c-.08.328-.112 2.441-.07 4.697l.075 4.1 9.26.162 9.26.16 3.176.948c3.498 1.044 5.542 1.48 6.35 1.355.29-.045 1.66-.157 3.042-.25zm6.443-20.796c.07-8.141.084-8.34.753-10.285 1.567-4.558 1.81-7.919.768-10.625-.607-1.578-2.329-3.445-3.636-3.942-.78-.296-14.2-.37-15.365-.084-1.26.309-2.54 1.36-3.577 2.937-.548.834-.997 1.667-.997 1.852 0 .258.985.337 4.23.337 4.9 0 6.022.288 8.191 2.104 1.876 1.57 2.73 3.478 2.73 6.098 0 2.62-.854 4.526-2.73 6.097-2.155 1.804-3.304 2.105-8.058 2.105-2.787 0-4.098.092-4.098.289 0 .159.238.591.529.961.631.803.71 2.662.157 3.724-.204.393-.69 1.012-1.08 1.376-.597.558-.963.661-2.35.661-1.592 0-1.711-.05-3.975-1.67-1.284-.917-2.367-1.632-2.407-1.587-.04.045-.117 1.63-.17 3.522l-.097 3.44 2.867.075c5.581.146 8.254-.902 11.817-4.637 1.928-2.02 2.433-2.403 3.533-2.678 1.161-.292 1.397-.268 2.473.253 1.335.647 2.194 1.829 2.195 3.021.001.683-.412 2.04-1.185 3.9-.179.427.094.463 3.606.477 2.335.01 4.155.143 4.724.346.51.183.961.31 1.004.283.043-.027.11-3.785.148-8.35zm-23.195 1.575c1.039-.977.843-2.286-.579-3.867-1.322-1.471-1.527-2.352-.595-2.56.327-.073 3.105-.165 6.173-.204l5.578-.07 1.301-.803c.876-.541 1.583-1.272 2.162-2.238.738-1.23.86-1.68.86-3.18 0-3.158-1.611-5.319-4.647-6.233-.892-.268-2.652-.378-6.045-.377h-4.787l-3.704 1.507-3.704 1.506-6.152.098-6.151.098v9.49h7.638l5.243 3.694c5.616 3.956 6.251 4.226 7.409 3.139zm-22.203-11.265.07-5.887h-4.507v5.799c0 4.388.08 5.832.33 5.937.183.077 1.165.116 2.183.089l1.853-.051zm61.37-31.354c3.526-3.528 6.467-6.48 6.538-6.558.195-.218-12.514-8.192-13.056-8.192-.158 0-.287.158-.287.35 0 .784-2.407 5.213-3.93 7.23-1.835 2.434-3.78 4.213-6.587 6.024l-1.918 1.239v2.2c0 2.357.438 3.359 1.69 3.865.307.124 2.94.233 5.85.241l5.292.016zm-34.557 5.602c1.158-.824 1.596-1.881 1.505-3.629l-.08-1.51-1.837-.202c-4.336-.479-7.176-3.07-8.062-7.358-.168-.812-.229-1.675-.135-1.918.184-.482-1.25-2.03-1.881-2.03-.553 0-1.446-1.455-1.446-2.357 0-.45-.117-.819-.262-.819-.144 0-2.949 1.692-6.233 3.76l-5.971 3.758 6.443 6.428 6.442 6.427h5.372c5.016 0 5.424-.036 6.145-.55zm5.164-8.303c1.437-.54 3.892-1.468 5.456-2.062l2.844-1.08v-9.427l1.082-1.767c.93-1.52 1.103-2.04 1.229-3.703.189-2.497-.003-2.741-2.15-2.741h-1.627l-2.483-2.522c-2.89-2.935-4.941-4.54-7.259-5.682-1.54-.758-1.924-.828-5.362-.975l-3.703-.159-1.108 3.36c-.61 1.848-1.108 3.478-1.108 3.622 0 .144.536 1.177 1.19 2.295.655 1.119 1.191 2.335 1.191 2.703 0 .7-.698 2.148-2.418 5.014-1.298 2.164-1.302 2.672-.027 3.389 1.755.986 2.114 1.575 2.224 3.644.183 3.429 2.107 6.119 4.952 6.922 1.905.538 4.13.277 7.077-.831zm12.74-1.189c7.88-5.937 10.883-15.13 8-24.486-2.684-8.714-9.398-14.53-18.159-15.729-6.548-.896-13.665 3.35-14.166 8.453l-.09.926 3.439.144c2.631.11 3.765.275 4.825.701 2.333.937 5.804 3.453 8.56 6.203l2.624 2.619 1.87-.039c1.056-.022 1.997.088 2.16.252.184.183.274 1.452.245 3.45-.045 3.084-.068 3.199-.97 4.796l-.925 1.636v6.325c0 3.763.1 6.325.248 6.325.136 0 1.189-.71 2.339-1.576zm14.731-26.867c.726-1.618.938-2.64.938-4.528 0-3.263-1.273-5.747-3.857-7.524-2.383-1.64-5.061-1.974-7.564-.945-1.423.585-3.085 1.683-3.117 2.058-.008.096.832.988 1.867 1.984 2.26 2.175 3.771 4.243 5.227 7.153 1.017 2.033 1.195 2.234 2.875 3.233l1.79 1.066.743-.852c.408-.468.902-1.209 1.098-1.645z" style="fill:#000" transform="translate(-30.145 -268.049)"/></svg>